HIERARCHY
ROOT Hips
{
	OFFSET 0.000000 0.000000 0.000000
	CHANNELS 6 Xposition Yposition Zposition Zrotation Yrotation Xrotation 
	JOINT LHipJoint
	{
		OFFSET 0.000000 0.000000 0.000000
		CHANNELS 3 Zrotation Yrotation Xrotation
		JOINT LeftUpLeg
		{
			OFFSET 1.363060 -1.794630 0.839290
			CHANNELS 3 Zrotation Yrotation Xrotation
			JOINT LeftLeg
			{
				OFFSET 2.448110 -6.726130 0.000000
				CHANNELS 3 Zrotation Yrotation Xrotation
				JOINT LeftFoot
				{
					OFFSET 2.562200 -7.039590 0.000000
					CHANNELS 3 Zrotation Yrotation Xrotation
					JOINT LeftToeBase
					{
						OFFSET 0.157640 -0.433110 2.322550
						CHANNELS 3 Zrotation Yrotation Xrotation
						End Site
						{
							OFFSET 0.000000 0.000000 0.000000
						}
					}
				}
			}
		}
	}
	JOINT RHipJoint
	{
		OFFSET 0.000000 0.000000 0.000000
		CHANNELS 3 Zrotation Yrotation Xrotation
		JOINT RightUpLeg
		{
			OFFSET -1.305520 -1.794630 0.839290
			CHANNELS 3 Zrotation Yrotation Xrotation
			JOINT RightLeg
			{
				OFFSET -2.542530 -6.985550 0.000000
				CHANNELS 3 Zrotation Yrotation Xrotation
				JOINT RightFoot
				{
					OFFSET -2.568260 -7.056230 0.000000
					CHANNELS 3 Zrotation Yrotation Xrotation
					JOINT RightToeBase
					{
						OFFSET -0.164730 -0.452590 2.363150
						CHANNELS 3 Zrotation Yrotation Xrotation
						End Site
						{
							OFFSET 0.000000 0.000000 0.000000
						}
					}
				}
			}
		}
	}
	JOINT LowerBack
	{
		OFFSET 0.000000 0.000000 0.000000
		CHANNELS 3 Zrotation Yrotation Xrotation
		JOINT Spine
		{
			OFFSET 0.028270 2.035590 -0.193380
			CHANNELS 3 Zrotation Yrotation Xrotation
			JOINT Spine1
			{
				OFFSET 0.056720 2.048850 -0.042750
				CHANNELS 3 Zrotation Yrotation Xrotation
				JOINT Neck
				{
					OFFSET 0.000000 0.000000 0.000000
					CHANNELS 3 Zrotation Yrotation Xrotation
					JOINT Neck1
					{
						OFFSET -0.054170 1.746240 0.172020
						CHANNELS 3 Zrotation Yrotation Xrotation
						JOINT Head
						{
							OFFSET 0.104070 1.761360 -0.123970
							CHANNELS 3 Zrotation Yrotation Xrotation
							End Site
							{
								OFFSET 0.000000 0.000000 0.000000
							}
						}
					}
				}
				JOINT LeftShoulder
				{
					OFFSET 0.000000 0.000000 0.000000
					CHANNELS 3 Zrotation Yrotation Xrotation
					JOINT LeftArm
					{
						OFFSET 3.362410 1.200890 -0.311210
						CHANNELS 3 Zrotation Yrotation Xrotation
						JOINT LeftForeArm
						{
							OFFSET 4.983000 -0.000000 -0.000000
							CHANNELS 3 Zrotation Yrotation Xrotation
							JOINT LeftHand
							{
								OFFSET 3.483560 -0.000000 -0.000000
								CHANNELS 3 Zrotation Yrotation Xrotation
								JOINT LeftFingerBase
								{
									OFFSET 0.000000 0.000000 0.000000
									CHANNELS 3 Zrotation Yrotation Xrotation
									JOINT LeftHandIndex1
									{
										OFFSET 0.715260 -0.000000 -0.000000
										CHANNELS 3 Zrotation Yrotation Xrotation
										End Site
										{
											OFFSET 0.000000 0.000000 0.000000
										}
									}
								}
								JOINT LThumb
								{
									OFFSET 0.000000 0.000000 0.000000
									CHANNELS 3 Zrotation Yrotation Xrotation
									End Site
									{
										OFFSET 0.000000 0.000000 0.000000
									}
								}
							}
						}
					}
				}
				JOINT RightShoulder
				{
					OFFSET 0.000000 0.000000 0.000000
					CHANNELS 3 Zrotation Yrotation Xrotation
					JOINT RightArm
					{
						OFFSET -3.136600 1.374050 -0.404650
						CHANNELS 3 Zrotation Yrotation Xrotation
						JOINT RightForeArm
						{
							OFFSET -5.241900 -0.000000 -0.000000
							CHANNELS 3 Zrotation Yrotation Xrotation
							JOINT RightHand
							{
								OFFSET -3.444170 -0.000000 -0.000000
								CHANNELS 3 Zrotation Yrotation Xrotation
								JOINT RightFingerBase
								{
									OFFSET 0.000000 0.000000 0.000000
									CHANNELS 3 Zrotation Yrotation Xrotation
									JOINT RightHandIndex1
									{
										OFFSET -0.622530 -0.000000 -0.000000
										CHANNELS 3 Zrotation Yrotation Xrotation
										End Site
										{
											OFFSET 0.000000 0.000000 0.000000
										}
									}
								}
								JOINT RThumb
								{
									OFFSET 0.000000 0.000000 0.000000
									CHANNELS 3 Zrotation Yrotation Xrotation
									End Site
									{
										OFFSET 0.000000 0.000000 0.000000
									}
								}
							}
						}
					}
				}
			}
		}
	}
}
MOTION
Frames: 8
Frame Time: 0.008333
8.779238 18.918064 -16.049243 1.742679 2.749213 -7.393253 10.395798 -6.131237 -6.382525 -32.927328 8.951746 24.197690 5.802216 1.129097 -0.544513 -0.936332 -11.253476 -29.077970 0.071100 1.719900 4.732300 -20.332603 3.798530 -11.278674 43.676505 -9.895883 31.808645 -5.965662 -0.177502 -5.694650 -5.293390 -2.696694 -42.551962 -1.205500 -6.965700 19.613900 12.349696 1.906845 -6.993666 -24.806006 2.155957 24.944109 2.056429 -0.403388 -5.361216 -13.314880 -12.860970 -10.007289 29.282336 -20.674046 17.156684 3.245900 -8.757600 3.932700 10.006616 -8.636968 1.999158 -91.322273 2.238304 24.164354 24.950405 -27.505706 -2.748113 0.738116 0.175305 -9.578172 7.323769 -14.128648 -1.617600 -7.125000 0.000000 0.000000 -14.199600 15.960500 10.065300 0.493782 7.265365 0.832693 100.081303 -3.697166 7.759580 -21.514970 22.241082 -3.507970 1.048740 -5.417811 -3.964100 -7.787045 -41.120471 5.038500 7.125000 0.000000 0.000000 30.453700 -63.210200 -14.121900 
8.781954 18.910004 -16.047929 -0.707295 2.041724 -8.626226 12.487557 -5.533529 -5.610302 -32.498821 8.907733 24.791013 5.777093 1.123255 -0.426688 -1.007813 -11.501331 -29.004448 0.084400 1.874100 5.158000 -17.814761 4.507850 -10.262002 43.750200 -9.933552 31.749226 -5.995692 -0.112271 -5.768965 -5.315646 -2.731281 -42.534734 -1.125700 -6.739100 18.944800 2.800644 -0.063472 -10.833940 -3.822280 -0.805712 33.790354 -2.018091 0.153705 -6.517544 -14.707792 -12.442080 -8.486157 25.149620 -17.956396 7.080877 3.387900 -8.713500 3.015200 6.689092 -8.001648 0.429240 -93.253999 0.279774 24.124570 24.739151 -27.849385 -2.749477 0.555449 0.322503 -9.587110 6.839782 -12.348540 -1.364900 -7.125000 0.000000 0.000000 -14.512800 17.545100 9.782900 -2.837127 6.898717 -0.124650 97.396194 -2.560461 9.530804 -21.756201 22.165825 -3.389329 1.113726 -5.298757 -1.292666 -5.226340 -38.721958 3.514800 7.125000 0.000000 0.000000 30.448100 -60.787900 -12.372400 
8.785896 18.904134 -16.046089 -1.168167 1.918034 -8.671223 12.987948 -5.404881 -5.571164 -32.572463 8.856341 24.832933 5.773086 1.119089 -0.431717 -1.017234 -11.544430 -29.008977 0.077700 1.797900 4.947600 -17.294683 4.641681 -10.207318 43.623758 -10.055011 31.696665 -6.010332 -0.069390 -5.886377 -5.274258 -2.574365 -42.486745 -1.118400 -6.718100 18.882900 0.677121 -0.513729 -11.050032 0.619483 -1.715298 34.057418 -2.546044 0.299299 -5.957290 -13.580591 -11.974573 -6.378966 21.273362 -16.381489 0.446626 3.669800 -8.686700 2.535900 5.656809 -7.991260 0.105798 -93.609941 -0.077677 24.370458 24.988992 -28.190803 -2.829936 0.490249 0.409448 -9.751357 6.643634 -11.651718 -1.269600 -7.125000 0.000000 0.000000 -14.652600 18.138000 9.685200 -3.967790 6.895271 -0.328137 96.879577 -2.168791 7.408705 -22.122696 22.514334 -3.289406 2.143504 -4.886993 1.889453 5.690652 -35.947990 -1.687000 7.125000 0.000000 0.000000 37.875200 -56.972000 -12.308600 
8.788087 18.898789 -16.045038 -0.934766 1.947921 -8.632852 12.670588 -5.498180 -5.588802 -32.529037 8.827495 24.913645 5.773445 1.071031 -0.586027 -0.943232 -11.379038 -29.075571 0.085500 1.886400 5.191700 -17.615851 4.545012 -10.207439 43.720073 -10.033588 31.653932 -6.005107 -0.080150 -5.869122 -5.244466 -2.515217 -42.382824 -1.122000 -6.728400 18.913200 2.030148 -0.163189 -10.966390 -2.178169 -1.072950 33.786394 -1.822090 0.291464 -5.616946 -12.731261 -11.788599 -5.323953 21.408072 -15.817192 -1.952395 3.748700 -8.672700 2.183200 5.969859 -8.055965 0.093443 -93.271926 -0.236045 24.340828 25.096192 -28.226527 -2.860815 0.592095 0.335140 -9.592708 7.167001 -12.485193 -1.444900 -7.125000 0.000000 0.000000 -14.307500 17.391300 9.685200 -3.684910 6.948948 -0.441174 97.225510 -2.157398 7.527192 -21.884535 22.195354 -3.121669 2.068006 -4.686393 4.062900 6.253835 -33.472730 -1.818600 7.125000 0.000000 0.000000 36.436400 -55.112900 -10.024800 
8.790628 18.893007 -16.044249 -1.222524 1.851932 -8.611342 12.909168 -5.449135 -5.606824 -32.492871 8.787277 24.993082 5.770489 1.039781 -0.683157 -0.907454 -11.307381 -29.114196 0.085600 1.886600 5.192300 -17.394070 4.586940 -10.170557 43.796927 -10.032966 31.540972 -6.011897 -0.073553 -5.883407 -5.230377 -2.478647 -42.332776 -1.110600 -6.695300 18.815800 1.116171 -0.357262 -11.077794 -0.075784 -1.491909 33.748246 -2.176127 0.352622 -5.111782 -12.454379 -11.517824 -3.940060 20.623848 -14.998640 -5.647239 3.878400 -8.653100 1.724300 5.546811 -8.099781 -0.076476 -93.409709 -0.572474 24.365617 25.166375 -28.338873 -2.894489 0.616120 0.324273 -9.563394 7.357510 -12.632607 -1.497900 -7.125000 0.000000 0.000000 -14.185000 17.252800 9.641300 -4.162353 6.949410 -0.567849 97.038878 -2.089809 7.733757 -21.874725 22.065612 -3.000090 2.095768 -4.490130 5.916324 7.364381 -31.195471 -2.150000 7.125000 0.000000 0.000000 35.770000 -53.311100 -8.132400 
8.793081 18.887750 -16.043461 -1.287363 1.825605 -8.551436 12.948598 -5.450775 -5.633989 -32.492332 8.749719 25.042900 5.770136 1.000145 -0.813070 -0.859102 -11.200126 -29.151934 0.083100 1.859100 5.116300 -17.382789 4.576060 -10.167786 43.864318 -10.005064 31.456264 -6.018627 -0.074661 -5.881088 -5.224160 -2.465450 -42.306081 -1.112100 -6.699800 18.828900 1.016462 -0.359688 -11.072885 0.208479 -1.526369 33.480261 -2.178200 0.377422 -4.681259 -12.289495 -11.293332 -2.839918 20.643638 -14.372431 -8.180291 4.036100 -8.631700 1.394900 5.423609 -8.172527 -0.160143 -93.377495 -0.787543 24.315822 25.256527 -28.431807 -2.927027 0.656298 0.298830 -9.530736 7.596097 -12.947878 -1.577500 -7.125000 0.000000 0.000000 -14.030900 16.964400 9.621400 -4.255523 6.973902 -0.656142 97.030303 -2.140460 8.247643 -21.820398 21.901014 -2.913541 1.913573 -4.386601 7.266708 6.460772 -29.705309 -1.699200 7.125000 0.000000 0.000000 34.051000 -52.307600 -6.767500 
8.795446 18.883019 -16.042584 -1.309099 1.817239 -8.489266 12.953017 -5.462831 -5.660546 -32.499571 8.717931 25.095419 5.769419 0.954691 -0.964377 -0.809012 -11.084956 -29.181002 0.079400 1.817600 5.001700 -17.403184 4.561402 -10.170352 43.939438 -9.944950 31.394404 -6.026080 -0.077620 -5.869407 -5.232687 -2.489540 -42.317181 -1.125000 -6.737200 18.939000 1.042169 -0.339685 -11.062871 0.205774 -1.509583 33.213475 -2.164356 0.387929 -4.328588 -12.310220 -11.111310 -2.010308 20.999757 -13.888239 -9.889179 4.198000 -8.610600 1.170100 5.378438 -8.243327 -0.212619 -93.338358 -0.958884 24.199941 25.342493 -28.530516 -2.958569 0.692578 0.278576 -9.504800 7.818450 -13.221166 -1.651600 -7.125000 0.000000 0.000000 -13.888900 16.711600 9.597100 -4.246788 6.997535 -0.713900 97.052287 -2.249056 9.056452 -21.749468 21.742484 -2.879028 1.570723 -4.386990 8.108743 4.043169 -29.111680 -0.751200 7.125000 0.000000 0.000000 31.668900 -52.112700 -6.045100 
8.797987 18.878813 -16.041270 -1.321136 1.816904 -8.435288 12.957353 -5.474793 -5.681178 -32.519772 8.688573 25.152562 5.768054 0.908141 -1.120490 -0.762459 -10.977642 -29.204053 0.075600 1.773500 4.880100 -17.414047 4.555592 -10.174982 44.005943 -9.867941 31.361543 -6.034195 -0.078775 -5.858687 -5.251420 -2.535906 -42.359751 -1.149500 -6.807700 19.146800 1.038076 -0.332984 -11.063125 0.240277 -1.509640 33.000429 -2.177412 0.392197 -4.072876 -12.426230 -10.980476 -1.463777 21.378306 -13.561453 -10.893936 4.325800 -8.591000 1.037600 5.346719 -8.297362 -0.244927 -93.331878 -1.096555 24.038582 25.420343 -28.637139 -2.988936 0.720417 0.268435 -9.486874 8.011266 -13.398437 -1.711200 -7.125000 0.000000 0.000000 -13.767600 16.542400 9.560400 -4.215324 7.016907 -0.740734 97.062747 -2.372943 9.896152 -21.702445 21.644330 -2.896968 1.205445 -4.450382 8.499057 1.288730 -29.217892 0.279700 7.125000 0.000000 0.000000 29.408300 -52.485600 -5.827700 
